<mxfile host="app.diagrams.net" modified="2024-04-04T07:46:32.558Z" agent="Mozilla/5.0 (Windows NT 10.0; Win64; x64) AppleWebKit/537.36 (KHTML, like Gecko) Chrome/123.0.0.0 Safari/537.36" etag="IOhelM6JeswbB7RXN1iY" scale="1" border="0" version="24.2.1" type="device">
  <diagram name="PÃ¡gina-1" id="0sZiEOjumrSiEsBqNo8A">
    <mxGraphModel dx="1646" dy="426" grid="1" gridSize="10" guides="1" tooltips="1" connect="1" arrows="1" fold="1" page="1" pageScale="1" pageWidth="827" pageHeight="1169" math="0" shadow="0">
      <root>
        <mxCell id="0" />
        <mxCell id="1" parent="0" />
        <mxCell id="jOm7nZBo5qtVr3yKoZWt-13" style="edgeStyle=orthogonalEdgeStyle;rounded=0;orthogonalLoop=1;jettySize=auto;html=1;endArrow=none;endFill=0;" parent="1" source="jOm7nZBo5qtVr3yKoZWt-1" target="jOm7nZBo5qtVr3yKoZWt-12" edge="1">
          <mxGeometry relative="1" as="geometry" />
        </mxCell>
        <mxCell id="jOm7nZBo5qtVr3yKoZWt-1" value="USUARIO" style="whiteSpace=wrap;html=1;align=center;" parent="1" vertex="1">
          <mxGeometry x="120" y="120" width="120" height="40" as="geometry" />
        </mxCell>
        <mxCell id="jOm7nZBo5qtVr3yKoZWt-2" value="&lt;b&gt;id_usuario&lt;/b&gt;&lt;div&gt;nombre&lt;/div&gt;&lt;div&gt;apellidos&lt;br&gt;&lt;div&gt;email&lt;/div&gt;&lt;div&gt;passwd&lt;/div&gt;&lt;div&gt;nickname&lt;/div&gt;&lt;div&gt;DNI&lt;/div&gt;&lt;div&gt;telefono&lt;/div&gt;&lt;/div&gt;&lt;div&gt;posicion&lt;/div&gt;" style="text;strokeColor=none;fillColor=none;spacingLeft=4;spacingRight=4;overflow=hidden;rotatable=0;points=[[0,0.5],[1,0.5]];portConstraint=eastwest;fontSize=12;whiteSpace=wrap;html=1;align=center;" parent="1" vertex="1">
          <mxGeometry x="120" y="160" width="120" height="130" as="geometry" />
        </mxCell>
        <mxCell id="jOm7nZBo5qtVr3yKoZWt-3" value="" style="triangle;whiteSpace=wrap;html=1;rotation=90;" parent="1" vertex="1">
          <mxGeometry x="150" y="330" width="60" height="80" as="geometry" />
        </mxCell>
        <mxCell id="jOm7nZBo5qtVr3yKoZWt-11" style="edgeStyle=orthogonalEdgeStyle;rounded=0;orthogonalLoop=1;jettySize=auto;html=1;endArrow=none;endFill=0;" parent="1" source="jOm7nZBo5qtVr3yKoZWt-4" edge="1">
          <mxGeometry relative="1" as="geometry">
            <mxPoint x="179" y="300" as="targetPoint" />
          </mxGeometry>
        </mxCell>
        <mxCell id="jOm7nZBo5qtVr3yKoZWt-4" value="" style="ellipse;whiteSpace=wrap;html=1;aspect=fixed;" parent="1" vertex="1">
          <mxGeometry x="174" y="330" width="10" height="10" as="geometry" />
        </mxCell>
        <mxCell id="jOm7nZBo5qtVr3yKoZWt-9" style="edgeStyle=orthogonalEdgeStyle;rounded=0;orthogonalLoop=1;jettySize=auto;html=1;endArrow=none;endFill=0;" parent="1" source="jOm7nZBo5qtVr3yKoZWt-7" target="jOm7nZBo5qtVr3yKoZWt-3" edge="1">
          <mxGeometry relative="1" as="geometry" />
        </mxCell>
        <mxCell id="jOm7nZBo5qtVr3yKoZWt-7" value="USUARIO&lt;div&gt;REGULAR&lt;/div&gt;" style="whiteSpace=wrap;html=1;align=center;" parent="1" vertex="1">
          <mxGeometry x="40" y="440" width="120" height="40" as="geometry" />
        </mxCell>
        <mxCell id="jOm7nZBo5qtVr3yKoZWt-10" style="edgeStyle=orthogonalEdgeStyle;rounded=0;orthogonalLoop=1;jettySize=auto;html=1;entryX=1;entryY=0.5;entryDx=0;entryDy=0;endArrow=none;endFill=0;" parent="1" source="jOm7nZBo5qtVr3yKoZWt-8" target="jOm7nZBo5qtVr3yKoZWt-3" edge="1">
          <mxGeometry relative="1" as="geometry" />
        </mxCell>
        <mxCell id="jOm7nZBo5qtVr3yKoZWt-22" style="edgeStyle=orthogonalEdgeStyle;rounded=0;orthogonalLoop=1;jettySize=auto;html=1;entryX=0;entryY=0.5;entryDx=0;entryDy=0;endArrow=none;endFill=0;" parent="1" source="jOm7nZBo5qtVr3yKoZWt-8" target="jOm7nZBo5qtVr3yKoZWt-20" edge="1">
          <mxGeometry relative="1" as="geometry" />
        </mxCell>
        <mxCell id="jOm7nZBo5qtVr3yKoZWt-31" style="edgeStyle=orthogonalEdgeStyle;rounded=0;orthogonalLoop=1;jettySize=auto;html=1;entryX=0.5;entryY=0;entryDx=0;entryDy=0;endArrow=none;endFill=0;" parent="1" source="jOm7nZBo5qtVr3yKoZWt-8" target="jOm7nZBo5qtVr3yKoZWt-29" edge="1">
          <mxGeometry relative="1" as="geometry" />
        </mxCell>
        <mxCell id="jOm7nZBo5qtVr3yKoZWt-8" value="USUARIO&lt;div&gt;CAPITAN&lt;/div&gt;" style="whiteSpace=wrap;html=1;align=center;" parent="1" vertex="1">
          <mxGeometry x="210" y="440" width="120" height="40" as="geometry" />
        </mxCell>
        <mxCell id="jOm7nZBo5qtVr3yKoZWt-15" style="edgeStyle=orthogonalEdgeStyle;rounded=0;orthogonalLoop=1;jettySize=auto;html=1;endArrow=none;endFill=0;" parent="1" source="jOm7nZBo5qtVr3yKoZWt-12" target="jOm7nZBo5qtVr3yKoZWt-14" edge="1">
          <mxGeometry relative="1" as="geometry" />
        </mxCell>
        <mxCell id="jOm7nZBo5qtVr3yKoZWt-12" value="PERTENECE" style="shape=rhombus;perimeter=rhombusPerimeter;whiteSpace=wrap;html=1;align=center;" parent="1" vertex="1">
          <mxGeometry x="294" y="110" width="120" height="60" as="geometry" />
        </mxCell>
        <mxCell id="jOm7nZBo5qtVr3yKoZWt-42" style="edgeStyle=orthogonalEdgeStyle;rounded=0;orthogonalLoop=1;jettySize=auto;html=1;entryX=0.5;entryY=0;entryDx=0;entryDy=0;endArrow=none;endFill=0;" parent="1" source="jOm7nZBo5qtVr3yKoZWt-14" target="jOm7nZBo5qtVr3yKoZWt-40" edge="1">
          <mxGeometry relative="1" as="geometry" />
        </mxCell>
        <mxCell id="jOm7nZBo5qtVr3yKoZWt-14" value="EQUIPO" style="whiteSpace=wrap;html=1;align=center;" parent="1" vertex="1">
          <mxGeometry x="470" y="120" width="120" height="40" as="geometry" />
        </mxCell>
        <mxCell id="jOm7nZBo5qtVr3yKoZWt-16" value="&lt;b&gt;id_equipo&lt;/b&gt;&lt;div&gt;nombre&lt;/div&gt;&lt;div&gt;descripcion&lt;/div&gt;&lt;div&gt;estadio&lt;/div&gt;&lt;div&gt;localidad&lt;/div&gt;&lt;div&gt;&lt;u style=&quot;font-style: italic;&quot;&gt;id_usuario_capitan&lt;/u&gt;&lt;/div&gt;" style="text;strokeColor=none;fillColor=none;spacingLeft=4;spacingRight=4;overflow=hidden;rotatable=0;points=[[0,0.5],[1,0.5]];portConstraint=eastwest;fontSize=12;whiteSpace=wrap;html=1;align=center;" parent="1" vertex="1">
          <mxGeometry x="470" y="160" width="120" height="100" as="geometry" />
        </mxCell>
        <mxCell id="jOm7nZBo5qtVr3yKoZWt-17" value="0,N" style="text;html=1;align=center;verticalAlign=middle;resizable=0;points=[];autosize=1;strokeColor=none;fillColor=none;" parent="1" vertex="1">
          <mxGeometry x="430" y="110" width="40" height="30" as="geometry" />
        </mxCell>
        <mxCell id="jOm7nZBo5qtVr3yKoZWt-18" value="1,N" style="text;html=1;align=center;verticalAlign=middle;resizable=0;points=[];autosize=1;strokeColor=none;fillColor=none;" parent="1" vertex="1">
          <mxGeometry x="240" y="110" width="40" height="30" as="geometry" />
        </mxCell>
        <mxCell id="jOm7nZBo5qtVr3yKoZWt-19" value="N:M" style="text;html=1;align=center;verticalAlign=middle;resizable=0;points=[];autosize=1;strokeColor=none;fillColor=none;" parent="1" vertex="1">
          <mxGeometry x="330" y="84" width="50" height="30" as="geometry" />
        </mxCell>
        <mxCell id="jOm7nZBo5qtVr3yKoZWt-23" style="edgeStyle=orthogonalEdgeStyle;rounded=0;orthogonalLoop=1;jettySize=auto;html=1;endArrow=none;endFill=0;entryX=0.971;entryY=-0.064;entryDx=0;entryDy=0;entryPerimeter=0;" parent="1" source="jOm7nZBo5qtVr3yKoZWt-20" edge="1" target="jOm7nZBo5qtVr3yKoZWt-24">
          <mxGeometry relative="1" as="geometry">
            <mxPoint x="530" y="250" as="targetPoint" />
          </mxGeometry>
        </mxCell>
        <mxCell id="jOm7nZBo5qtVr3yKoZWt-20" value="LIDERA" style="shape=rhombus;perimeter=rhombusPerimeter;whiteSpace=wrap;html=1;align=center;" parent="1" vertex="1">
          <mxGeometry x="469" y="430" width="120" height="60" as="geometry" />
        </mxCell>
        <mxCell id="jOm7nZBo5qtVr3yKoZWt-24" value="1,1" style="text;html=1;align=center;verticalAlign=middle;resizable=0;points=[];autosize=1;strokeColor=none;fillColor=none;" parent="1" vertex="1">
          <mxGeometry x="490" y="270" width="40" height="30" as="geometry" />
        </mxCell>
        <mxCell id="jOm7nZBo5qtVr3yKoZWt-25" value="1,1" style="text;html=1;align=center;verticalAlign=middle;resizable=0;points=[];autosize=1;strokeColor=none;fillColor=none;" parent="1" vertex="1">
          <mxGeometry x="331" y="430" width="40" height="30" as="geometry" />
        </mxCell>
        <mxCell id="jOm7nZBo5qtVr3yKoZWt-26" value="1:1" style="text;html=1;align=center;verticalAlign=middle;resizable=0;points=[];autosize=1;strokeColor=none;fillColor=none;" parent="1" vertex="1">
          <mxGeometry x="510" y="490" width="40" height="30" as="geometry" />
        </mxCell>
        <mxCell id="jOm7nZBo5qtVr3yKoZWt-41" style="edgeStyle=orthogonalEdgeStyle;rounded=0;orthogonalLoop=1;jettySize=auto;html=1;entryX=0;entryY=0.5;entryDx=0;entryDy=0;endArrow=none;endFill=0;" parent="1" source="jOm7nZBo5qtVr3yKoZWt-28" target="jOm7nZBo5qtVr3yKoZWt-40" edge="1">
          <mxGeometry relative="1" as="geometry" />
        </mxCell>
        <mxCell id="VCZvfLjGUvS2xcPYeZXK-3" style="edgeStyle=orthogonalEdgeStyle;rounded=0;orthogonalLoop=1;jettySize=auto;html=1;entryX=0.5;entryY=1;entryDx=0;entryDy=0;endArrow=none;endFill=0;" edge="1" parent="1" source="jOm7nZBo5qtVr3yKoZWt-28" target="VCZvfLjGUvS2xcPYeZXK-2">
          <mxGeometry relative="1" as="geometry" />
        </mxCell>
        <mxCell id="jOm7nZBo5qtVr3yKoZWt-28" value="PARTIDO" style="whiteSpace=wrap;html=1;align=center;" parent="1" vertex="1">
          <mxGeometry x="210" y="710" width="120" height="40" as="geometry" />
        </mxCell>
        <mxCell id="jOm7nZBo5qtVr3yKoZWt-34" style="edgeStyle=orthogonalEdgeStyle;rounded=0;orthogonalLoop=1;jettySize=auto;html=1;endArrow=none;endFill=0;" parent="1" source="jOm7nZBo5qtVr3yKoZWt-29" target="jOm7nZBo5qtVr3yKoZWt-28" edge="1">
          <mxGeometry relative="1" as="geometry" />
        </mxCell>
        <mxCell id="jOm7nZBo5qtVr3yKoZWt-29" value="CREA" style="shape=rhombus;perimeter=rhombusPerimeter;whiteSpace=wrap;html=1;align=center;" parent="1" vertex="1">
          <mxGeometry x="210" y="570" width="120" height="60" as="geometry" />
        </mxCell>
        <mxCell id="jOm7nZBo5qtVr3yKoZWt-35" value="0,N" style="text;html=1;align=center;verticalAlign=middle;resizable=0;points=[];autosize=1;strokeColor=none;fillColor=none;" parent="1" vertex="1">
          <mxGeometry x="270" y="680" width="40" height="30" as="geometry" />
        </mxCell>
        <mxCell id="jOm7nZBo5qtVr3yKoZWt-36" value="1,1" style="text;html=1;align=center;verticalAlign=middle;resizable=0;points=[];autosize=1;strokeColor=none;fillColor=none;" parent="1" vertex="1">
          <mxGeometry x="270" y="480" width="40" height="30" as="geometry" />
        </mxCell>
        <mxCell id="jOm7nZBo5qtVr3yKoZWt-37" value="1,N" style="text;html=1;align=center;verticalAlign=middle;resizable=0;points=[];autosize=1;strokeColor=none;fillColor=none;" parent="1" vertex="1">
          <mxGeometry x="330" y="585" width="40" height="30" as="geometry" />
        </mxCell>
        <mxCell id="jOm7nZBo5qtVr3yKoZWt-39" value="&lt;b&gt;id_partido&lt;/b&gt;&lt;div&gt;&lt;i&gt;&lt;u&gt;equipo_local&lt;/u&gt;&lt;/i&gt;&lt;/div&gt;&lt;div&gt;&lt;i&gt;&lt;u&gt;equipo_visitante&lt;/u&gt;&lt;/i&gt;&lt;/div&gt;&lt;div&gt;ubicacion&lt;/div&gt;&lt;div&gt;resultado&lt;/div&gt;&lt;div&gt;resumen&lt;/div&gt;&lt;div&gt;&lt;u&gt;&lt;i&gt;id_usuario_creador&lt;/i&gt;&lt;/u&gt;&lt;/div&gt;" style="text;strokeColor=none;fillColor=none;spacingLeft=4;spacingRight=4;overflow=hidden;rotatable=0;points=[[0,0.5],[1,0.5]];portConstraint=eastwest;fontSize=12;whiteSpace=wrap;html=1;align=center;" parent="1" vertex="1">
          <mxGeometry x="210" y="750" width="120" height="130" as="geometry" />
        </mxCell>
        <mxCell id="jOm7nZBo5qtVr3yKoZWt-40" value="PARTICIPA" style="shape=rhombus;perimeter=rhombusPerimeter;whiteSpace=wrap;html=1;align=center;" parent="1" vertex="1">
          <mxGeometry x="680" y="700" width="120" height="60" as="geometry" />
        </mxCell>
        <mxCell id="jOm7nZBo5qtVr3yKoZWt-43" value="1,2" style="text;html=1;align=center;verticalAlign=middle;resizable=0;points=[];autosize=1;strokeColor=none;fillColor=none;" parent="1" vertex="1">
          <mxGeometry x="585" y="110" width="40" height="30" as="geometry" />
        </mxCell>
        <mxCell id="jOm7nZBo5qtVr3yKoZWt-44" value="0,N" style="text;html=1;align=center;verticalAlign=middle;resizable=0;points=[];autosize=1;strokeColor=none;fillColor=none;" parent="1" vertex="1">
          <mxGeometry x="330" y="700" width="40" height="30" as="geometry" />
        </mxCell>
        <mxCell id="jOm7nZBo5qtVr3yKoZWt-46" value="1:N" style="text;html=1;align=center;verticalAlign=middle;resizable=0;points=[];autosize=1;strokeColor=none;fillColor=none;" parent="1" vertex="1">
          <mxGeometry x="720" y="758" width="40" height="30" as="geometry" />
        </mxCell>
        <mxCell id="jOm7nZBo5qtVr3yKoZWt-50" style="edgeStyle=orthogonalEdgeStyle;rounded=0;orthogonalLoop=1;jettySize=auto;html=1;endArrow=none;endFill=0;" parent="1" source="jOm7nZBo5qtVr3yKoZWt-47" target="jOm7nZBo5qtVr3yKoZWt-1" edge="1">
          <mxGeometry relative="1" as="geometry" />
        </mxCell>
        <mxCell id="jOm7nZBo5qtVr3yKoZWt-47" value="REALIZA" style="shape=rhombus;perimeter=rhombusPerimeter;whiteSpace=wrap;html=1;align=center;" parent="1" vertex="1">
          <mxGeometry x="-80" y="110" width="120" height="60" as="geometry" />
        </mxCell>
        <mxCell id="jOm7nZBo5qtVr3yKoZWt-49" style="edgeStyle=orthogonalEdgeStyle;rounded=0;orthogonalLoop=1;jettySize=auto;html=1;endArrow=none;endFill=0;" parent="1" source="jOm7nZBo5qtVr3yKoZWt-48" target="jOm7nZBo5qtVr3yKoZWt-47" edge="1">
          <mxGeometry relative="1" as="geometry" />
        </mxCell>
        <mxCell id="jOm7nZBo5qtVr3yKoZWt-48" value="GOL" style="whiteSpace=wrap;html=1;align=center;" parent="1" vertex="1">
          <mxGeometry x="-280" y="120" width="120" height="40" as="geometry" />
        </mxCell>
        <mxCell id="jOm7nZBo5qtVr3yKoZWt-52" value="&lt;b&gt;id_gol&lt;/b&gt;&lt;div&gt;&lt;u style=&quot;background-color: initial;&quot;&gt;&lt;i&gt;id_usuario_goleador&lt;/i&gt;&lt;/u&gt;&lt;br&gt;&lt;/div&gt;&lt;div&gt;&lt;div&gt;&lt;u&gt;&lt;i&gt;id_usuario_asistente&lt;/i&gt;&lt;/u&gt;&lt;/div&gt;&lt;/div&gt;&lt;div&gt;&lt;i&gt;&lt;u&gt;id_partido&lt;br&gt;&lt;/u&gt;&lt;/i&gt;&lt;div&gt;&lt;br&gt;&lt;/div&gt;&lt;div&gt;&lt;div&gt;&lt;br&gt;&lt;/div&gt;&lt;/div&gt;&lt;/div&gt;" style="text;strokeColor=none;fillColor=none;spacingLeft=4;spacingRight=4;overflow=hidden;rotatable=0;points=[[0,0.5],[1,0.5]];portConstraint=eastwest;fontSize=12;whiteSpace=wrap;html=1;align=center;" parent="1" vertex="1">
          <mxGeometry x="-295" y="160" width="150" height="60" as="geometry" />
        </mxCell>
        <mxCell id="jOm7nZBo5qtVr3yKoZWt-53" value="0,N" style="text;html=1;align=center;verticalAlign=middle;resizable=0;points=[];autosize=1;strokeColor=none;fillColor=none;" parent="1" vertex="1">
          <mxGeometry x="-160" y="110" width="40" height="30" as="geometry" />
        </mxCell>
        <mxCell id="jOm7nZBo5qtVr3yKoZWt-54" value="1,1" style="text;html=1;align=center;verticalAlign=middle;resizable=0;points=[];autosize=1;strokeColor=none;fillColor=none;" parent="1" vertex="1">
          <mxGeometry x="80" y="110" width="40" height="30" as="geometry" />
        </mxCell>
        <mxCell id="jOm7nZBo5qtVr3yKoZWt-55" value="1:N" style="text;html=1;align=center;verticalAlign=middle;resizable=0;points=[];autosize=1;strokeColor=none;fillColor=none;" parent="1" vertex="1">
          <mxGeometry x="-40" y="84" width="40" height="30" as="geometry" />
        </mxCell>
        <mxCell id="VCZvfLjGUvS2xcPYeZXK-4" style="edgeStyle=orthogonalEdgeStyle;rounded=0;orthogonalLoop=1;jettySize=auto;html=1;endArrow=none;endFill=0;" edge="1" parent="1" source="VCZvfLjGUvS2xcPYeZXK-2">
          <mxGeometry relative="1" as="geometry">
            <mxPoint x="-220" y="240" as="targetPoint" />
          </mxGeometry>
        </mxCell>
        <mxCell id="VCZvfLjGUvS2xcPYeZXK-2" value="CONTIENE" style="shape=rhombus;perimeter=rhombusPerimeter;whiteSpace=wrap;html=1;align=center;" vertex="1" parent="1">
          <mxGeometry x="-280" y="430" width="120" height="60" as="geometry" />
        </mxCell>
        <mxCell id="VCZvfLjGUvS2xcPYeZXK-5" value="0,N" style="text;html=1;align=center;verticalAlign=middle;resizable=0;points=[];autosize=1;strokeColor=none;fillColor=none;" vertex="1" parent="1">
          <mxGeometry x="-220" y="240" width="40" height="30" as="geometry" />
        </mxCell>
        <mxCell id="VCZvfLjGUvS2xcPYeZXK-6" value="1,1" style="text;html=1;align=center;verticalAlign=middle;resizable=0;points=[];autosize=1;strokeColor=none;fillColor=none;" vertex="1" parent="1">
          <mxGeometry x="170" y="700" width="40" height="30" as="geometry" />
        </mxCell>
        <mxCell id="VCZvfLjGUvS2xcPYeZXK-7" value="1,N" style="text;html=1;align=center;verticalAlign=middle;resizable=0;points=[];autosize=1;strokeColor=none;fillColor=none;" vertex="1" parent="1">
          <mxGeometry x="-165" y="445" width="40" height="30" as="geometry" />
        </mxCell>
      </root>
    </mxGraphModel>
  </diagram>
</mxfile>
